{
    "asset" : {
        "generator" : "Khronos glTF Blender I/O v3.2.43",
        "version" : "2.0"
    },
    "scene" : 0,
    "scenes" : [
        {
            "name" : "Scene",
            "nodes" : [
                0,
                1
            ]
        }
    ],
    "nodes" : [
        {
            "mesh" : 0,
            "name" : "Head.render"
        },
        {
            "mesh" : 1,
            "name" : "Body.render"
        }
    ],
    "materials" : [
        {
            "doubleSided" : true,
            "name" : "Hair",
            "pbrMetallicRoughness" : {
                "baseColorFactor" : [
                    0.018848661333322525,
                    0.018848661333322525,
                    0.018848661333322525,
                    1
                ],
                "metallicFactor" : 0,
                "roughnessFactor" : 0.5
            }
        },
        {
            "doubleSided" : true,
            "name" : "Skin",
            "pbrMetallicRoughness" : {
                "baseColorFactor" : [
                    1,
                    0.5836595892906189,
                    0.40737876296043396,
                    1
                ],
                "metallicFactor" : 0,
                "roughnessFactor" : 0.4000000059604645
            }
        },
        {
            "doubleSided" : true,
            "name" : "Material",
            "pbrMetallicRoughness" : {
                "baseColorFactor" : [
                    0.8000000715255737,
                    0.4317535161972046,
                    0.5367498993873596,
                    1
                ],
                "metallicFactor" : 0,
                "roughnessFactor" : 0.5
            }
        },
        {
            "doubleSided" : true,
            "name" : "Eye",
            "pbrMetallicRoughness" : {
                "baseColorFactor" : [
                    0.02539389207959175,
                    0.02539389207959175,
                    0.02539389207959175,
                    1
                ],
                "metallicFactor" : 0,
                "roughnessFactor" : 0.5
            }
        },
        {
            "doubleSided" : true,
            "name" : "Shirt",
            "pbrMetallicRoughness" : {
                "baseColorFactor" : [
                    0.800000011920929,
                    0.800000011920929,
                    0.800000011920929,
                    1
                ],
                "metallicFactor" : 0,
                "roughnessFactor" : 0.5
            }
        },
        {
            "doubleSided" : true,
            "name" : "Pants",
            "pbrMetallicRoughness" : {
                "baseColorFactor" : [
                    0.09805228561162949,
                    0.17552238702774048,
                    0.49692243337631226,
                    1
                ],
                "metallicFactor" : 0,
                "roughnessFactor" : 0.5
            }
        },
        {
            "doubleSided" : true,
            "name" : "Primary",
            "pbrMetallicRoughness" : {
                "baseColorFactor" : [
                    0.06372044235467911,
                    0.06372044235467911,
                    0.06372044235467911,
                    1
                ],
                "metallicFactor" : 0,
                "roughnessFactor" : 0.5
            }
        },
        {
            "doubleSided" : true,
            "name" : "Outline",
            "pbrMetallicRoughness" : {
                "baseColorFactor" : [
                    0.800000011920929,
                    0.800000011920929,
                    0.800000011920929,
                    1
                ],
                "metallicFactor" : 0,
                "roughnessFactor" : 0.5
            }
        }
    ],
    "meshes" : [
        {
            "name" : "Cube.005",
            "primitives" : [
                {
                    "attributes" : {
                        "POSITION" : 0,
                        "NORMAL" : 1,
                        "TEXCOORD_0" : 2
                    },
                    "indices" : 3,
                    "material" : 0
                },
                {
                    "attributes" : {
                        "POSITION" : 4,
                        "NORMAL" : 5,
                        "TEXCOORD_0" : 6
                    },
                    "indices" : 7,
                    "material" : 1
                },
                {
                    "attributes" : {
                        "POSITION" : 8,
                        "NORMAL" : 9,
                        "TEXCOORD_0" : 10
                    },
                    "indices" : 11,
                    "material" : 2
                },
                {
                    "attributes" : {
                        "POSITION" : 12,
                        "NORMAL" : 13,
                        "TEXCOORD_0" : 14
                    },
                    "indices" : 15,
                    "material" : 3
                }
            ]
        },
        {
            "name" : "Cube.009",
            "primitives" : [
                {
                    "attributes" : {
                        "POSITION" : 16,
                        "NORMAL" : 17,
                        "TEXCOORD_0" : 18
                    },
                    "indices" : 19,
                    "material" : 1
                },
                {
                    "attributes" : {
                        "POSITION" : 20,
                        "NORMAL" : 21,
                        "TEXCOORD_0" : 22
                    },
                    "indices" : 23,
                    "material" : 4
                },
                {
                    "attributes" : {
                        "POSITION" : 24,
                        "NORMAL" : 25,
                        "TEXCOORD_0" : 26
                    },
                    "indices" : 27,
                    "material" : 5
                },
                {
                    "attributes" : {
                        "POSITION" : 28,
                        "NORMAL" : 29,
                        "TEXCOORD_0" : 30
                    },
                    "indices" : 31,
                    "material" : 6
                },
                {
                    "attributes" : {
                        "POSITION" : 32,
                        "NORMAL" : 33,
                        "TEXCOORD_0" : 34
                    },
                    "indices" : 35,
                    "material" : 7
                }
            ]
        }
    ],
    "accessors" : [
        {
            "bufferView" : 0,
            "componentType" : 5126,
            "count" : 1198,
            "max" : [
                0.24466124176979065,
                1.6149476766586304,
                0.19605419039726257
            ],
            "min" : [
                -0.2464524358510971,
                1.1215626001358032,
                -0.30131375789642334
            ],
            "type" : "VEC3"
        },
        {
            "bufferView" : 1,
            "componentType" : 5126,
            "count" : 1198,
            "type" : "VEC3"
        },
        {
            "bufferView" : 2,
            "componentType" : 5126,
            "count" : 1198,
            "type" : "VEC2"
        },
        {
            "bufferView" : 3,
            "componentType" : 5123,
            "count" : 6096,
            "type" : "SCALAR"
        },
        {
            "bufferView" : 4,
            "componentType" : 5126,
            "count" : 747,
            "max" : [
                0.25125402212142944,
                1.503813624382019,
                0.21714895963668823
            ],
            "min" : [
                -0.25125402212142944,
                1.05461847782135,
                -0.2039593607187271
            ],
            "type" : "VEC3"
        },
        {
            "bufferView" : 5,
            "componentType" : 5126,
            "count" : 747,
            "type" : "VEC3"
        },
        {
            "bufferView" : 6,
            "componentType" : 5126,
            "count" : 747,
            "type" : "VEC2"
        },
        {
            "bufferView" : 7,
            "componentType" : 5123,
            "count" : 3492,
            "type" : "SCALAR"
        },
        {
            "bufferView" : 8,
            "componentType" : 5126,
            "count" : 39,
            "max" : [
                0.050833795219659805,
                1.1939996480941772,
                0.19915246963500977
            ],
            "min" : [
                -0.050833798944950104,
                1.1623541116714478,
                0.1741732805967331
            ],
            "type" : "VEC3"
        },
        {
            "bufferView" : 9,
            "componentType" : 5126,
            "count" : 39,
            "type" : "VEC3"
        },
        {
            "bufferView" : 10,
            "componentType" : 5126,
            "count" : 39,
            "type" : "VEC2"
        },
        {
            "bufferView" : 11,
            "componentType" : 5123,
            "count" : 192,
            "type" : "SCALAR"
        },
        {
            "bufferView" : 12,
            "componentType" : 5126,
            "count" : 152,
            "max" : [
                0.09425293654203415,
                1.2991318702697754,
                0.20646797120571136
            ],
            "min" : [
                -0.09425293654203415,
                1.2692711353302002,
                0.17660747468471527
            ],
            "type" : "VEC3"
        },
        {
            "bufferView" : 13,
            "componentType" : 5126,
            "count" : 152,
            "type" : "VEC3"
        },
        {
            "bufferView" : 14,
            "componentType" : 5126,
            "count" : 152,
            "type" : "VEC2"
        },
        {
            "bufferView" : 15,
            "componentType" : 5123,
            "count" : 648,
            "type" : "SCALAR"
        },
        {
            "bufferView" : 16,
            "componentType" : 5126,
            "count" : 1543,
            "max" : [
                0.2516390383243561,
                1.0838360786437988,
                0.09013320505619049
            ],
            "min" : [
                -0.2516390383243561,
                0.036884110420942307,
                -0.052459295839071274
            ],
            "type" : "VEC3"
        },
        {
            "bufferView" : 17,
            "componentType" : 5126,
            "count" : 1543,
            "type" : "VEC3"
        },
        {
            "bufferView" : 18,
            "componentType" : 5126,
            "count" : 1543,
            "type" : "VEC2"
        },
        {
            "bufferView" : 19,
            "componentType" : 5123,
            "count" : 7872,
            "type" : "SCALAR"
        },
        {
            "bufferView" : 20,
            "componentType" : 5126,
            "count" : 961,
            "max" : [
                0.21271806955337524,
                1.0419954061508179,
                0.09918304532766342
            ],
            "min" : [
                -0.21271806955337524,
                0.597839891910553,
                -0.09918304532766342
            ],
            "type" : "VEC3"
        },
        {
            "bufferView" : 21,
            "componentType" : 5126,
            "count" : 961,
            "type" : "VEC3"
        },
        {
            "bufferView" : 22,
            "componentType" : 5126,
            "count" : 961,
            "type" : "VEC2"
        },
        {
            "bufferView" : 23,
            "componentType" : 5123,
            "count" : 4608,
            "type" : "SCALAR"
        },
        {
            "bufferView" : 24,
            "componentType" : 5126,
            "count" : 391,
            "max" : [
                0.15303575992584229,
                0.5978400111198425,
                0.08252164721488953
            ],
            "min" : [
                -0.15303575992584229,
                0.1132301539182663,
                -0.08252164721488953
            ],
            "type" : "VEC3"
        },
        {
            "bufferView" : 25,
            "componentType" : 5126,
            "count" : 391,
            "type" : "VEC3"
        },
        {
            "bufferView" : 26,
            "componentType" : 5126,
            "count" : 391,
            "type" : "VEC2"
        },
        {
            "bufferView" : 27,
            "componentType" : 5123,
            "count" : 2160,
            "type" : "SCALAR"
        },
        {
            "bufferView" : 28,
            "componentType" : 5126,
            "count" : 3716,
            "max" : [
                0.177838534116745,
                0.1033610850572586,
                0.21676933765411377
            ],
            "min" : [
                -0.177838534116745,
                0.022790903225541115,
                -0.04498114436864853
            ],
            "type" : "VEC3"
        },
        {
            "bufferView" : 29,
            "componentType" : 5126,
            "count" : 3716,
            "type" : "VEC3"
        },
        {
            "bufferView" : 30,
            "componentType" : 5126,
            "count" : 3716,
            "type" : "VEC2"
        },
        {
            "bufferView" : 31,
            "componentType" : 5123,
            "count" : 21504,
            "type" : "SCALAR"
        },
        {
            "bufferView" : 32,
            "componentType" : 5126,
            "count" : 4860,
            "max" : [
                0.1859005242586136,
                0.07626406103372574,
                0.22928768396377563
            ],
            "min" : [
                -0.1859005242586136,
                0.005843840539455414,
                -0.05757933855056763
            ],
            "type" : "VEC3"
        },
        {
            "bufferView" : 33,
            "componentType" : 5126,
            "count" : 4860,
            "type" : "VEC3"
        },
        {
            "bufferView" : 34,
            "componentType" : 5126,
            "count" : 4860,
            "type" : "VEC2"
        },
        {
            "bufferView" : 35,
            "componentType" : 5123,
            "count" : 26208,
            "type" : "SCALAR"
        }
    ],
    "bufferViews" : [
        {
            "buffer" : 0,
            "byteLength" : 14376,
            "byteOffset" : 0
        },
        {
            "buffer" : 0,
            "byteLength" : 14376,
            "byteOffset" : 14376
        },
        {
            "buffer" : 0,
            "byteLength" : 9584,
            "byteOffset" : 28752
        },
        {
            "buffer" : 0,
            "byteLength" : 12192,
            "byteOffset" : 38336
        },
        {
            "buffer" : 0,
            "byteLength" : 8964,
            "byteOffset" : 50528
        },
        {
            "buffer" : 0,
            "byteLength" : 8964,
            "byteOffset" : 59492
        },
        {
            "buffer" : 0,
            "byteLength" : 5976,
            "byteOffset" : 68456
        },
        {
            "buffer" : 0,
            "byteLength" : 6984,
            "byteOffset" : 74432
        },
        {
            "buffer" : 0,
            "byteLength" : 468,
            "byteOffset" : 81416
        },
        {
            "buffer" : 0,
            "byteLength" : 468,
            "byteOffset" : 81884
        },
        {
            "buffer" : 0,
            "byteLength" : 312,
            "byteOffset" : 82352
        },
        {
            "buffer" : 0,
            "byteLength" : 384,
            "byteOffset" : 82664
        },
        {
            "buffer" : 0,
            "byteLength" : 1824,
            "byteOffset" : 83048
        },
        {
            "buffer" : 0,
            "byteLength" : 1824,
            "byteOffset" : 84872
        },
        {
            "buffer" : 0,
            "byteLength" : 1216,
            "byteOffset" : 86696
        },
        {
            "buffer" : 0,
            "byteLength" : 1296,
            "byteOffset" : 87912
        },
        {
            "buffer" : 0,
            "byteLength" : 18516,
            "byteOffset" : 89208
        },
        {
            "buffer" : 0,
            "byteLength" : 18516,
            "byteOffset" : 107724
        },
        {
            "buffer" : 0,
            "byteLength" : 12344,
            "byteOffset" : 126240
        },
        {
            "buffer" : 0,
            "byteLength" : 15744,
            "byteOffset" : 138584
        },
        {
            "buffer" : 0,
            "byteLength" : 11532,
            "byteOffset" : 154328
        },
        {
            "buffer" : 0,
            "byteLength" : 11532,
            "byteOffset" : 165860
        },
        {
            "buffer" : 0,
            "byteLength" : 7688,
            "byteOffset" : 177392
        },
        {
            "buffer" : 0,
            "byteLength" : 9216,
            "byteOffset" : 185080
        },
        {
            "buffer" : 0,
            "byteLength" : 4692,
            "byteOffset" : 194296
        },
        {
            "buffer" : 0,
            "byteLength" : 4692,
            "byteOffset" : 198988
        },
        {
            "buffer" : 0,
            "byteLength" : 3128,
            "byteOffset" : 203680
        },
        {
            "buffer" : 0,
            "byteLength" : 4320,
            "byteOffset" : 206808
        },
        {
            "buffer" : 0,
            "byteLength" : 44592,
            "byteOffset" : 211128
        },
        {
            "buffer" : 0,
            "byteLength" : 44592,
            "byteOffset" : 255720
        },
        {
            "buffer" : 0,
            "byteLength" : 29728,
            "byteOffset" : 300312
        },
        {
            "buffer" : 0,
            "byteLength" : 43008,
            "byteOffset" : 330040
        },
        {
            "buffer" : 0,
            "byteLength" : 58320,
            "byteOffset" : 373048
        },
        {
            "buffer" : 0,
            "byteLength" : 58320,
            "byteOffset" : 431368
        },
        {
            "buffer" : 0,
            "byteLength" : 38880,
            "byteOffset" : 489688
        },
        {
            "buffer" : 0,
            "byteLength" : 52416,
            "byteOffset" : 528568
        }
    ],
    "buffers" : [
        {
            "byteLength" : 580984,
            "uri" : "data:application/octet-stream;base64,"
        }
    ]
}
