<?xml version="1.0" encoding="utf-8"?>
<svg height="100%" stroke-miterlimit="10"
    style="fill-rule:nonzero;clip-rule:evenodd;stroke-linecap:round;stroke-linejoin:round;" version="1.1"
    viewBox="0 0 2388 1668" width="100%" xml:space="preserve" xmlns="http://www.w3.org/2000/svg"
    xmlns:vectornator="http://vectornator.io" xmlns:xlink="http://www.w3.org/1999/xlink">
    <g id="Layer-5" vectornator:layerName="Layer 5">
        <path
            d="M1159.36 470.728L1143.28 558.334C1143.28 558.334 1193.87 546.289 1208.52 537.528C1223.17 528.767 1246.34 408.857 1246.34 408.857C1246.34 408.857 1191.03 459.23 1159.36 470.728Z"
            fill="#f3c6b2" fill-rule="nonzero" opacity="1" stroke="none" />
        <path
            d="M1241.24 430.188C1241.79 429.084 1242.14 432.572 1242.04 433.802C1241.63 438.782 1240.62 443.696 1240.03 448.658C1239.51 453.082 1239.02 457.513 1238.03 461.908C1236.38 469.131 1234.26 476.34 1232.81 483.591C1230.8 493.608 1230 504.468 1226.78 514.106C1225.29 518.589 1224.34 523.138 1223.57 527.758C1223.19 530.036 1222.75 532.304 1222.37 534.584C1222.3 534.98 1222.77 535.789 1222.37 535.789C1221.24 535.789 1222.68 528.006 1222.77 527.357C1223.75 520.005 1225.03 512.568 1226.38 505.273C1228.46 494.074 1231.62 483.084 1234.01 471.946C1234.12 471.419 1234.95 464.719 1236.02 464.719C1236.22 464.719 1235.94 466.573 1235.62 471.143C1235.17 477.381 1233.32 484.67 1231.6 490.818C1227.47 505.577 1224.67 520.467 1221.16 535.387C1219.39 542.929 1216.34 552.087 1216.34 559.88C1216.34 560.694 1216.49 558.243 1216.75 557.471"
            fill="#f3c6b2" fill-rule="nonzero" opacity="1" stroke="none" />
        <path
            d="M1237.62 444.241C1236.12 447.256 1236.9 450.944 1236.42 454.279C1235.52 460.464 1234.35 466.606 1233.21 472.75C1230.44 487.616 1225.92 502.216 1222.37 516.917C1220.32 525.413 1218.24 533.796 1215.94 542.213C1215.29 544.615 1214.68 547.066 1214.34 549.441C1214.3 549.667 1213.49 553.456 1213.53 553.456C1213.83 553.456 1213.87 552.945 1213.93 552.653C1214.52 550.016 1214.61 547.277 1215.14 544.622"
            fill="#f3c6b2" fill-rule="nonzero" opacity="1" stroke="none" />
        <path
            d="M1236.82 459.098C1233.78 459.098 1233.48 469.142 1232.81 473.553C1232.35 476.49 1232.07 479.452 1231.6 482.386C1228.56 501.374 1224.21 519.973 1219.56 538.599C1218 544.823 1216.08 551.457 1215.54 557.873C1215.45 558.94 1214.47 561.085 1215.54 561.085C1217.07 561.085 1216.37 558.149 1216.75 556.668"
            fill="#f3c6b2" fill-rule="nonzero" opacity="1" stroke="none" />
        <path
            d="M1235.62 471.545C1233.19 470.333 1233.42 476.535 1232.81 479.174C1231.46 484.957 1230.72 490.997 1229.59 496.841C1227.2 509.276 1223.97 521.441 1221.16 533.781C1220.25 537.811 1219.42 541.827 1218.35 545.827C1217.96 547.301 1217.52 548.763 1217.15 550.244C1217.04 550.654 1216.56 551.827 1216.75 551.448C1218.11 548.708 1218.56 545.591 1219.15 542.615"
            fill="#f3c6b2" fill-rule="nonzero" opacity="1" stroke="none" />
        <path
            d="M1234.01 471.946C1230.63 465.18 1230.27 478.559 1230 481.182C1229.8 483.064 1229.46 484.929 1229.19 486.803C1227.35 499.708 1225.79 512.67 1222.77 525.349C1222.59 526.079 1219.96 539.001 1219.96 539.001C1219.83 539.001 1219.76 538.188 1220.36 533.38C1220.74 530.299 1221.2 527.228 1221.56 524.145C1223.29 509.501 1225.07 494.743 1228.39 480.378C1229.1 477.277 1229.79 474.165 1230.8 471.143C1230.89 470.859 1230.93 470.207 1231.2 470.34C1231.79 470.633 1231.61 478.602 1231.6 478.772C1231.44 481.058 1231.15 483.335 1230.8 485.598C1227.93 504.016 1223.74 522.212 1220.76 540.607C1220.5 542.214 1220.18 543.812 1219.96 545.425C1219.61 547.983 1219 552.175 1219.15 552.251C1219.7 552.523 1220.49 549.539 1220.76 547.835C1221.83 541.05 1222.72 534.169 1223.57 527.357C1225.6 511.132 1227.83 495.194 1231.2 479.174C1232.36 473.649 1233.83 468.067 1235.62 462.711C1236.15 461.105 1236.81 459.536 1237.22 457.893C1237.39 457.231 1237.44 456.542 1237.62 455.885C1237.71 455.598 1238.08 454.787 1238.03 455.082C1237.1 460.657 1234.99 466.56 1233.61 471.946C1229.02 489.871 1223.82 507.568 1220.36 525.751C1219.56 529.931 1218.26 540.558 1217.95 544.221C1217.73 546.772 1217.71 551.005 1219.15 550.645C1221.13 550.151 1223.93 533.317 1224.37 530.971C1227.3 515.376 1229 499.63 1231.6 483.992C1232.52 478.499 1232.49 468.57 1235.22 463.113C1235.45 462.634 1235.3 464.191 1235.22 464.719C1235.03 465.808 1234.67 466.858 1234.41 467.931C1233.73 470.74 1233.06 473.55 1232.4 476.363C1231.35 480.875 1231.09 482.676 1230 488.007C1226.33 505.948 1222.18 523.96 1220.36 542.213C1220.11 544.663 1219.05 550.913 1219.56 553.456C1219.64 553.871 1219.53 554.66 1219.96 554.66C1221.5 554.66 1222.63 542.468 1222.77 541.41C1224.97 524.307 1226.35 507.07 1228.79 490.015C1229.54 484.744 1230.04 479.169 1231.2 473.954C1231.58 472.258 1232 470.885 1232 469.136C1232 468.734 1232 467.53 1232 467.931C1232 481.283 1227.05 495.219 1223.97 508.084C1221.28 519.344 1219.19 530.752 1217.55 542.213C1216.21 551.585 1214.74 561.284 1214.74 570.721C1214.74 572.06 1214.74 573.398 1214.74 574.737C1214.74 575.138 1214.34 575.941 1214.74 575.941C1215.65 575.941 1215.54 569.965 1215.54 569.115"
            fill="#f3c6b2" fill-rule="nonzero" opacity="1" stroke="none" />
        <path
            d="M1229.59 477.166C1231.09 480.159 1230.04 483.889 1229.59 487.204C1228.53 495.01 1226.91 502.728 1225.58 510.493C1224 519.72 1222.75 528.979 1221.16 538.198C1220.59 541.519 1220.2 544.875 1219.96 548.236C1219.83 549.977 1219.56 553.456 1219.56 553.456C1219.56 553.456 1219.56 550.511 1219.56 549.039"
            fill="#f3c6b2" fill-rule="nonzero" opacity="1" stroke="none" />
        <path
            d="M1232.4 475.159C1231.93 474.218 1232.79 472.705 1233.21 473.954C1234.46 477.698 1231.08 487.322 1230.4 491.22C1229.23 497.805 1226.92 504.086 1225.18 510.493C1223.64 516.132 1223.39 521.381 1221.16 526.955C1220.3 529.106 1209.22 530.876 1206.31 531.774C1204.71 532.266 1196.7 536.095 1197.47 533.781"
            fill="#f3c6b2" fill-rule="nonzero" opacity="1" stroke="none" />
        <path
            d="M1242.04 429.385C1243.51 430.121 1243.38 428.046 1243.65 428.18C1244.62 428.666 1244.13 435.263 1244.05 435.809C1242.9 443.831 1241.98 451.883 1240.84 459.901C1239.05 472.372 1236.48 484.739 1234.81 497.242C1233.34 508.323 1233.43 519.585 1231.6 530.569C1230.63 536.412 1230.16 542.405 1229.19 548.236C1228.87 550.144 1229.56 554.693 1227.99 556.267C1226.11 558.147 1221.84 556.743 1219.56 557.07C1215.46 557.655 1211.83 560.581 1207.91 561.888C1204.22 563.119 1200.04 561.661 1196.27 562.289C1192.06 562.99 1189.89 565.275 1186.23 567.108C1183.76 568.344 1180.21 570.308 1180.21 573.131"
            fill="#f3c6b2" fill-rule="nonzero" opacity="1" stroke="none" />
        <path
            d="M1261.74 392.279C1255.99 415.26 1251.2 438.697 1247.84 462.189C1246.31 472.873 1243.53 483.488 1242.63 494.321C1241.51 507.706 1240.06 520.933 1238.72 534.27C1238.42 537.331 1238.08 550.217 1236.55 552.507C1235.64 553.874 1231.92 552.747 1230.91 552.073C1226.4 549.069 1219.59 546.048 1213.97 547.297C1207.24 548.793 1200.8 553.869 1194.43 556.415C1183.72 560.7 1171.27 562.132 1161 567.271C1155.51 570.015 1149.69 574.321 1144.93 578.127C1141.54 580.842 1136.85 580.558 1133.64 583.771"
            fill="#f3c6b2" fill-rule="nonzero" opacity="1" stroke="none" />
        <path
            d="M1269.75 385.716C1270 385.214 1270.37 383.663 1270.51 384.208C1272.12 390.65 1268.6 399.805 1267.49 406.073C1264.89 420.799 1260.37 435.07 1257.69 449.802C1252.94 475.937 1248.87 502.071 1244.12 528.213C1243.01 534.305 1242.3 541.194 1240.35 547.062C1239.59 549.342 1238.41 550.034 1238.09 552.339C1236.95 560.271 1235.11 567.975 1233.56 575.712C1233 578.506 1235.04 584.039 1232.81 586.267C1230.99 588.086 1224.71 587.021 1222.25 587.021C1212.79 587.021 1203.53 587.383 1194.36 588.529C1173.2 591.174 1153.02 600.732 1133.29 608.132C1120.13 613.064 1108.34 615.33 1095.59 621.703C1084.93 627.032 1070.66 619.54 1064.68 631.504"
            fill="#f3c6b2" fill-rule="nonzero" opacity="1" stroke="none" />
    </g>
    <g id="Layer-2" vectornator:layerName="Layer 2">
        <path
            d="M1041.74 305.064C1041.74 305.064 995.59 450.794 1091.27 471.495C1186.96 492.196 1222.47 455.732 1239.2 437.899C1239.2 437.899 1246.57 442.942 1261.06 390.436C1275.54 337.93 1224.81 173.443 1041.74 305.064Z"
            fill="#ffdfd0" fill-rule="nonzero" opacity="1" stroke="none" />
    </g>
    <g id="Layer-4" vectornator:layerName="Layer 4">
        <path
            d="M1229.87 296.596C1229.87 296.596 1204.18 323.563 1169.51 315.43C1134.84 307.297 1151.11 293.599 1158.81 281.186C1166.52 268.772 1137.84 305.585 1103.59 312.434C1069.35 319.283 1069.78 319.711 1069.78 319.711C1069.78 319.711 988.874 309.009 1009.42 257.643C1029.97 206.277 1049.23 184.446 1091.18 177.597C1133.13 170.749 1148.97 181.878 1167.37 191.295C1167.37 191.295 1193.48 175.457 1235.43 187.015C1277.38 198.572 1347.15 219.118 1345.87 296.168C1344.58 373.217 1275.24 413.882 1263.25 410.886C1251.27 407.889 1257.69 364.656 1252.98 350.102C1248.27 335.549 1229.87 296.596 1229.87 296.596Z"
            fill="#f9d391" fill-rule="nonzero" opacity="1" stroke="none" />
    </g>
    <g id="Layer-3" vectornator:layerName="Layer 3">
        <path
            d="M1203.69 318.904C1203.69 318.904 1214.31 285.648 1243.36 289.89C1272.41 294.133 1265.62 380.966 1225.76 385.354C1225.76 385.354 1208.84 392.612 1203.52 386.212C1198.2 379.813 1203.69 318.904 1203.69 318.904Z"
            fill="#ffdfd0" fill-rule="nonzero" opacity="1" stroke="none" />
    </g>
    <g id="Layer-6" vectornator:layerName="Layer 6">
        <path
            d="M732.267 1491.24C732.267 1491.24 522.58 1321.01 566.547 1197C610.513 1072.99 793.143 738.17 841.619 681.802C890.095 625.435 861.912 646.854 981.41 601.76C1100.91 556.667 1170.8 523.974 1264.37 518.337C1357.94 512.7 1552.98 563.431 1598.07 593.869C1643.16 624.307 1899.07 908.399 1908.09 974.913C1917.11 1041.43 1866.38 1080.88 1855.1 1101.18C1843.83 1121.47 1725.93 1254.21 1725.93 1254.21C1725.93 1254.21 1744.52 1270.09 1737.22 1286.18C1729.92 1302.27 1710.5 1377.46 1635.88 1422.37C1561.26 1467.28 1560.78 1478.22 1481.39 1479.82L1227.05 1470.64L924.406 1519.31C924.406 1519.31 740.117 1526.28 732.267 1491.24Z"
            fill="#a0c9ce" fill-rule="nonzero" opacity="1" stroke="none" />
    </g>
    <g id="Layer-13" vectornator:layerName="Layer 13">
        <g fill="#ebf4f4" opacity="1" stroke="#deeced" stroke-linecap="butt" stroke-linejoin="round"
            stroke-width="8.1761" />
    </g>
    <g id="Layer-14" vectornator:layerName="Layer 14">
        <path
            d="M1282.14 825.937C1282.4 826.648 1283.45 828.185 1282.69 828.142C1276 827.759 1269.55 825.038 1262.85 824.835C1249.91 824.442 1235.21 828.35 1225.37 836.96C1194.6 863.886 1187.61 907.871 1196.71 946.088C1205.69 983.769 1237.27 1011.47 1269.47 1029.86C1277.26 1034.32 1284.78 1039.1 1293.72 1040.89C1310.69 1044.28 1328.33 1043.09 1345.53 1043.09C1372.82 1043.09 1408.02 1034.61 1428.2 1014.43C1446.3 996.327 1451.99 973.868 1455.76 949.395C1464.65 891.588 1469.56 819.34 1414.97 782.947C1405.91 776.905 1396.36 770.958 1385.21 769.719C1349.48 765.75 1325.31 775.603 1300.33 800.584C1294.05 806.866 1278.75 816.671 1282.14 825.937Z"
            fill="none" opacity="1" stroke="#deeced" stroke-linecap="butt" stroke-linejoin="round"
            stroke-width="8.1761" />
        <path
            d="M1277.18 819.323C1277.18 783.609 1285.69 740.845 1304.74 709.092C1308.16 703.385 1312.81 698.469 1315.76 692.558"
            fill="none" opacity="1" stroke="#deeced" stroke-linecap="butt" stroke-linejoin="round"
            stroke-width="8.1761" />
        <path d="M1276.31 827.938C1274.61 821.144 1275.87 813.918 1276.31 806.929" fill="none" opacity="1"
            stroke="#deeced" stroke-linecap="butt" stroke-linejoin="round" stroke-width="8.1761" />
        <path
            d="M1263.18 918.275C1264.11 919.337 1267.62 921.563 1266.85 920.376C1264.57 916.829 1261.71 913.592 1258.45 910.922C1257.64 910.257 1256.24 910.452 1255.3 910.922C1250.43 913.356 1264.16 925.169 1266.85 922.477C1269.31 920.023 1263.15 914.182 1261.6 913.023C1260.97 912.553 1259.27 911.222 1259.5 911.972C1260.2 914.302 1261.57 916.444 1263.18 918.275Z"
            fill="none" opacity="1" stroke="#deeced" stroke-linecap="butt" stroke-linejoin="round"
            stroke-width="8.1761" />
        <path
            d="M1342.48 888.863C1343.78 889.383 1347.18 890.174 1346.69 888.863C1345.38 885.378 1342.21 882.816 1339.33 880.459C1339.1 880.265 1331.95 878.392 1330.93 879.409C1329.08 881.263 1340.56 893.006 1343.53 892.014C1353.7 888.626 1325.18 872.607 1335.13 882.56C1335.68 883.114 1335.59 884.151 1336.18 884.661C1338.1 886.304 1340.14 887.925 1342.48 888.863Z"
            fill="none" opacity="1" stroke="#deeced" stroke-linecap="butt" stroke-linejoin="round"
            stroke-width="8.1761" />
        <path
            d="M1296.61 928.418C1296.61 935.701 1302.1 939.717 1307.01 944.009C1322.05 957.175 1337.41 944.179 1328.66 926.686C1327.02 923.4 1324.33 920.626 1321.73 918.024"
            fill="none" opacity="1" stroke="#deeced" stroke-linecap="butt" stroke-linejoin="round"
            stroke-width="8.1761" />
        <path
            d="M1274.1 821.421C1275.27 822.065 1277.06 822.789 1278.07 821.915C1281.24 819.171 1278.02 813.532 1277.84 809.344C1277.52 801.616 1278.68 796.205 1275.96 788.504C1267.23 763.817 1251.58 738.683 1230.39 722.802C1227.68 720.774 1225.41 717.765 1222.23 716.41C1218.11 714.658 1212.82 713.447 1208.33 712.887C1203.83 712.326 1198.58 710.836 1194.1 712.011C1189.54 713.209 1186.28 719.452 1183.74 723.263C1172.12 740.717 1183.72 763.219 1193.91 778.285C1205.37 795.215 1225.08 805.131 1243.44 812.227C1245.58 813.053 1246.98 814.956 1249.29 815.643C1258.24 818.304 1265.78 816.831 1274.1 821.421Z"
            fill="none" opacity="1" stroke="#deeced" stroke-linecap="butt" stroke-linejoin="round"
            stroke-width="8.1761" />
        <path
            d="M1190.91 716.093C1194.57 726.444 1201.5 735.835 1208.01 744.204C1213.82 751.666 1218.54 760.628 1223.79 768.568C1228.12 775.108 1234.28 780.112 1239.57 785.763C1246.53 793.2 1252.86 802.753 1260.86 809.021C1266.3 813.282 1272.66 816.4 1278.29 820.151"
            fill="none" opacity="1" stroke="#deeced" stroke-linecap="butt" stroke-linejoin="round"
            stroke-width="8.1761" />
        <path
            d="M1181.33 757.008C1189.2 767.112 1209.26 769.113 1221.15 768.238C1222.92 768.107 1224.76 769.49 1226.44 768.897C1227.74 768.436 1230.54 760.317 1231.29 758.75C1235.7 749.517 1238.92 736.2 1235.35 726.108"
            fill="none" opacity="1" stroke="#deeced" stroke-linecap="butt" stroke-linejoin="round"
            stroke-width="8.1761" />
        <path
            d="M1210.79 793.826C1217.93 798.583 1230.05 801.041 1238.69 799.989C1240.97 799.712 1242.79 798.21 1245.2 798.111C1247.22 798.027 1251.81 798.377 1253.47 796.453C1254.24 795.556 1253.48 794.03 1253.91 792.924C1257.04 784.827 1263.06 766.334 1260.07 757.855"
            fill="none" opacity="1" stroke="#deeced" stroke-linecap="butt" stroke-linejoin="round"
            stroke-width="8.1761" />
    </g>
    <g id="Layer-7" vectornator:layerName="Layer 7">
        <path
            d="M1024.04 886.053C1024.04 886.053 1212.21 1073.01 1232.85 1100.32C1253.48 1127.64 1256.89 1152.36 1256.89 1152.36C1256.89 1152.36 1284 1328.03 1226.14 1451.06C1168.28 1574.09 1105.4 1605.71 1105.4 1605.71C1105.4 1605.71 997.043 1568.89 906.946 1478.96C816.85 1389.03 736.907 1374.4 796.768 1242.13C856.628 1109.86 1024.04 886.053 1024.04 886.053Z"
            fill="#ffe59b" fill-rule="nonzero" opacity="1" stroke="none" />
        <path d="M1092.11 349.298C1092.96 349.723 1093.81 350.147 1094.66 350.572" fill="none" opacity="1"
            stroke="#121212" stroke-linecap="round" stroke-linejoin="round" stroke-width="6.22662" />
        <path
            d="M1074.3 350.723C1072.82 355.152 1074.1 359.903 1072.58 364.486C1071.28 368.363 1065.77 372.709 1065.12 375.955C1063.83 382.414 1075.23 386.85 1080.03 386.85"
            fill="none" opacity="1" stroke="#121212" stroke-linecap="round" stroke-linejoin="round"
            stroke-width="6.22662" />
        <path d="M1081.75 424.698C1097.13 424.698 1113.85 411.535 1120.75 397.746" fill="none" opacity="1"
            stroke="#121212" stroke-linecap="round" stroke-linejoin="round" stroke-width="6.22662" />
    </g>
    <g id="Layer-10" vectornator:layerName="Layer 10">
        <path
            d="M1241.75 1120.92C1241.75 1120.92 1159.59 1236.65 1097.75 1396.54C1035.91 1556.44 1034.45 1574.69 1034.45 1574.69C1034.45 1574.69 1074.68 1592.93 1089.51 1599.02C1104.34 1605.11 1105.9 1605.89 1105.9 1605.89C1105.9 1605.89 1135.32 1587.61 1152.86 1565.85C1170.4 1544.1 1217.99 1489.27 1233.84 1440.07C1249.69 1390.88 1277.98 1277.47 1265.31 1223.92C1252.64 1170.36 1241.75 1120.92 1241.75 1120.92Z"
            fill="#dec682" fill-rule="nonzero" opacity="1" stroke="none" />
    </g>
    <g id="Layer-8" vectornator:layerName="Layer 8">
        <path
            d="M1232.45 1115.33C1232.45 1115.33 1213.74 1198.26 1233.08 1246.9C1252.41 1295.54 1291.07 1313 1321.62 1303.02C1352.18 1293.05 1390.22 1199.51 1366.52 1171.45C1342.82 1143.39 1264.88 1113.46 1232.45 1115.33Z"
            fill="#43413b" fill-rule="nonzero" opacity="1" stroke="none" />
    </g>
    <g id="Layer-12" vectornator:layerName="Layer 12">
        <path
            d="M1206.64 314.076C1206.56 311.124 1212.57 303.937 1214.87 301.186C1224.69 289.483 1242.43 280.986 1255.6 292.428C1263.48 299.275 1265.84 327.264 1264.11 335.625C1261.63 347.663 1257.41 364.812 1250.39 372.209C1247.45 375.315 1245.84 376.678 1239.65 378.915C1235.09 380.567 1225.24 380.114 1221.24 378.243"
            fill="none" opacity="1" stroke="#f3c6b2" stroke-linecap="round" stroke-linejoin="round"
            stroke-width="6.22662" />
    </g>
    <g id="Layer-12-copy" vectornator:layerName="Layer 12 copy" visibility="hidden">
        <path
            d="M614.828 947.567C619.95 949.091 626.778 956.32 630.357 959.623C637.459 966.178 644.505 971.755 650.895 979.117C652.372 980.819 654.364 981.898 655.429 983.865"
            fill="none" opacity="1" stroke="#535353" stroke-linecap="round" stroke-linejoin="round"
            stroke-width="6.22662" />
        <path
            d="M635.199 969.104C635.541 968.872 636.562 968.272 636.342 968.622C633.71 972.801 630.965 976.362 628.751 980.832C624.163 990.091 618.663 998.987 613.727 1008.08C603.779 1026.42 591.428 1044.22 577.855 1060.07C573.093 1065.63 565.496 1076.15 558.444 1079.13C556.354 1080.01 556.113 1077.38 556.395 1076.11C557.196 1072.48 558.492 1068.86 559.68 1065.35C562.826 1056.05 566.734 1046.75 571.533 1038.19C572.911 1035.73 574.202 1033.21 575.587 1030.74C576.231 1029.59 576.994 1027.76 577.779 1026.6C577.87 1026.47 578.182 1026.33 578.182 1026.33C578.182 1026.33 577.703 1027.67 577.794 1028.36"
            fill="none" opacity="1" stroke="#535353" stroke-linecap="round" stroke-linejoin="round"
            stroke-width="6.22662" />
        <path
            d="M602.386 1060.43C598.964 1059.27 601.633 1064.16 603.136 1064.9C604.713 1065.67 606.989 1065.4 608.642 1065.12C615.874 1063.93 627.607 1055.77 631.065 1049.14C631.864 1047.61 634.384 1041.78 632.764 1040.14C630.352 1037.69 621.501 1045.03 619.326 1046.58C609.153 1053.78 598.634 1061.55 591.918 1072.3C590.031 1075.32 586.34 1083.82 591.586 1086.18C597.635 1088.91 606.567 1084.72 611.916 1082.17C621.28 1077.71 630.252 1071.69 638.758 1065.77C642.087 1063.45 645.385 1060.42 649.47 1059.64"
            fill="none" opacity="1" stroke="#535353" stroke-linecap="round" stroke-linejoin="round"
            stroke-width="6.22662" />
        <path
            d="M645.587 1073.16C642.851 1078.31 640.189 1083.51 637.303 1088.58C635.536 1091.68 633.591 1094.68 631.68 1097.7C629.829 1100.62 627.969 1103.55 626.066 1106.44C626.004 1106.53 623.579 1110.24 623.658 1110.24C624.386 1110.26 628.475 1103.01 629.065 1102.08C634.464 1093.55 639.819 1084.97 646.829 1077.62C648.141 1076.25 654.296 1068.66 656.609 1072.07C657.921 1074.01 656.239 1078.11 655.641 1080.15C653.793 1086.46 650.812 1092.26 647.874 1098.1C647.158 1099.52 644.303 1102.17 644.263 1103.8C644.243 1104.62 645.371 1102.57 645.852 1101.9C646.342 1101.22 646.779 1100.51 647.253 1099.82C649.135 1097.08 651.084 1094.34 653.046 1091.66C659.112 1083.4 665.238 1074.74 673.104 1068.04C674.02 1067.26 678.683 1063.52 679.706 1066.27C680.945 1069.6 674.148 1081.64 672.71 1084.23C665.185 1097.79 656.891 1110.68 648.6 1123.77C645.844 1128.12 642.982 1132.44 640.372 1136.88C639.928 1137.64 636.9 1142.07 638.153 1140.88"
            fill="none" opacity="1" stroke="#535353" stroke-linecap="round" stroke-linejoin="round"
            stroke-width="6.22662" />
        <path d="M683.874 1093.18C670.059 1112.85 660.862 1135.72 647.059 1155.37" fill="none" opacity="1"
            stroke="#535353" stroke-linecap="round" stroke-linejoin="round" stroke-width="6.22662" />
        <path
            d="M714.624 1058.25C714.436 1058.05 714.296 1057.52 714.059 1057.65C711.431 1059.17 709.105 1061.16 706.602 1062.87C701.81 1066.16 695.97 1069.23 691.687 1073.31"
            fill="none" opacity="1" stroke="#535353" stroke-linecap="round" stroke-linejoin="round"
            stroke-width="6.22662" />
        <path
            d="M708.896 1047.88C707.111 1050.7 705.512 1053.64 704.053 1056.64C701.497 1061.89 698.7 1067.89 697.274 1073.64C696.927 1075.04 695.377 1077.03 695.807 1078.43"
            fill="none" opacity="1" stroke="#535353" stroke-linecap="round" stroke-linejoin="round"
            stroke-width="6.22662" />
        <path
            d="M689.235 1102.77C689.498 1102.52 690.129 1101.67 690.025 1102.01C689.72 1103.03 689.139 1103.95 688.605 1104.87C686.856 1107.89 684.961 1110.81 683.179 1113.81C678.265 1122.07 674.888 1130.78 670.598 1139.35C668.851 1142.84 666.435 1146.33 663.611 1149.02C663.004 1149.6 661.602 1151.14 661.457 1150.32C661.161 1148.62 666.847 1140.42 667.71 1139.09C673.729 1129.82 679.649 1120.24 687.27 1112.17C690.295 1108.97 693.641 1105.01 698.188 1107.42C699.46 1108.1 700.299 1109.09 700.426 1110.56C700.757 1114.38 697.588 1118.95 696.092 1122.22C694.314 1126.11 694.258 1126.05 692.039 1130.23C689.46 1135.09 686.812 1139.9 683.783 1144.49C681.399 1148.11 678.705 1151.84 676.759 1155.71C675.269 1158.66 674.092 1163.9 671.681 1166.19"
            fill="none" opacity="1" stroke="#535353" stroke-linecap="round" stroke-linejoin="round"
            stroke-width="6.22662" />
        <path
            d="M718.583 1130.53C719.203 1128.27 720.141 1126.11 720.762 1123.84C723.619 1113.39 709.924 1125.79 708.569 1126.84C699.737 1133.7 692.063 1143.22 687.244 1153.39C684.481 1159.22 686.261 1169.44 694.565 1165.02C703.452 1160.3 709.077 1151.39 713.661 1142.82C717.035 1136.51 717.541 1128.49 721.901 1122.85"
            fill="none" opacity="1" stroke="#535353" stroke-linecap="round" stroke-linejoin="round"
            stroke-width="6.22662" />
        <path
            d="M804.207 466.894C804.154 464.889 808.234 460.007 809.8 458.139C816.466 450.19 828.52 444.418 837.463 452.191C842.813 456.841 844.417 475.852 843.246 481.531C841.559 489.707 838.692 501.356 833.927 506.38C831.927 508.489 830.834 509.416 826.633 510.935C823.53 512.057 816.842 511.749 814.124 510.479"
            fill="none" opacity="1" stroke="#f3c6b2" stroke-linecap="round" stroke-linejoin="round"
            stroke-width="6.22662" />
    </g>
    <g id="Layer-9" vectornator:layerName="Layer 9">
        <path
            d="M1263.01 1151.5C1263.01 1151.5 1262.38 1252.52 1287.95 1246.9C1313.52 1241.29 1325.36 1204.5 1325.36 1204.5L1263.01 1151.5Z"
            fill="#a6ced2" fill-rule="nonzero" opacity="1" stroke="none" />
    </g>
    <g id="Layer-11" vectornator:layerName="Layer 11" visibility="hidden">
        <path
            d="M716.554 806.408C716.554 806.408 640.564 901.14 586.51 991.597C532.455 1082.06 506.603 1104.85 512.087 1141.17"
            fill="none" opacity="1" stroke="#535353" stroke-linecap="round" stroke-linejoin="round"
            stroke-width="6.22662" />
        <path
            d="M1058.47 755.331C1051.34 797.397 1058.47 865.843 1092.69 957.104C1126.91 1048.37 1162.56 1100.41 1163.99 1117.52C1165.41 1134.64 1149.01 1187.4 1106.24 1215.92C1063.46 1244.44 1024.44 1255.19 1024.44 1255.19C1024.44 1255.19 909.453 1257.98 867.387 1255.13C825.322 1252.28 814.627 1253.7 814.627 1253.7"
            fill="none" opacity="1" stroke="#535353" stroke-linecap="butt" stroke-linejoin="round"
            stroke-width="6.22662" />
        <path
            d="M1170.23 896.845C1161.03 892.746 1148.6 900.884 1140.92 905.55C1122.5 916.744 1105.26 928.586 1088.53 942.334"
            fill="none" opacity="1" stroke="#535353" stroke-linecap="butt" stroke-linejoin="round"
            stroke-width="6.22662" />
        <path
            d="M1071.82 660.214C1071.82 660.214 961.054 606.024 887.687 607.698C814.32 609.371 785.692 610.003 713.642 639.141C641.592 668.279 591.613 673.994 576.74 692.026C561.866 710.057 459.044 867.085 422.747 951.409C386.45 1035.73 352.379 1080.84 371.726 1125.9C391.072 1170.96 460.254 1256.55 483.794 1269.12C507.335 1281.69 590.79 1295.09 626.92 1282.06"
            fill="none" opacity="1" stroke="#535353" stroke-linecap="butt" stroke-linejoin="round"
            stroke-width="6.22662" />
        <path
            d="M1070.55 659.998C1070.55 659.998 1218.23 808.525 1231.85 832.258C1245.47 855.992 1292.42 907.643 1277.72 947.78C1263.02 987.916 1159.88 1103.3 1159.88 1103.3"
            fill="none" opacity="1" stroke="#535353" stroke-linecap="butt" stroke-linejoin="round"
            stroke-width="6.22662" />
    </g>
    <g id="Layer-16" vectornator:layerName="Layer 16">
        <path
            d="M1025.11 1410.24C1011.52 1396.64 1000.25 1381.37 989.781 1365.67C986.725 1361.08 982.845 1356.82 979.997 1352.08C976.237 1345.81 973.164 1338.57 969.126 1332.51C947.812 1300.54 933.468 1263.42 922.924 1226.52C916.585 1204.33 908.964 1179.48 921.837 1158.03C925.717 1151.56 933.974 1146.98 940.318 1143.35C945.958 1140.13 950.174 1136.81 956.624 1135.2C960.801 1134.16 965.389 1134.66 969.67 1134.66C975.975 1134.66 982.25 1134.21 988.15 1136.83C1002.46 1143.19 1004.57 1172.12 1007.72 1185.75C1010.71 1198.69 1012.41 1211.81 1014.78 1224.89C1015.82 1230.57 1018.01 1235.9 1018.59 1241.74C1019.55 1251.29 1020.12 1261.03 1021.85 1270.54C1025.93 1292.97 1031.91 1314.63 1033.81 1337.4C1034.43 1344.84 1035.6 1352.31 1036.53 1359.69C1037.86 1370.33 1036.53 1382.11 1036.53 1392.84C1036.53 1397.17 1038.52 1408.25 1032.72 1409.69C1026.74 1411.19 1023.95 1403.36 1021.85 1399.37C1014.23 1384.9 1007.99 1370.42 999.021 1356.97C982.428 1332.08 975.3 1306.64 965.321 1278.7C957.234 1256.05 946.704 1232.43 943.036 1208.58C939.898 1188.18 932.393 1169.38 951.732 1155.31C954.528 1153.28 957.645 1150.99 960.973 1149.88C964.851 1148.58 967.698 1149.87 970.757 1152.05C982.739 1160.61 984.004 1173.57 985.976 1187.38C988.41 1204.42 993.488 1220.66 997.391 1237.39C1000.86 1252.27 1001.84 1267.69 1005.54 1282.5C1009.48 1298.23 1016.72 1313.32 1021.85 1328.7C1025.94 1340.96 1031.09 1352.55 1031.09 1365.67C1031.09 1369.41 1029.61 1375.39 1025.66 1377.08C1020.09 1379.47 1015.11 1370.1 1013.15 1366.75C1006.22 1354.87 1000.66 1341.76 996.304 1328.7C990.379 1310.93 984.26 1293.16 979.997 1274.89C976.97 1261.92 974.415 1248.56 970.757 1235.76C966.682 1221.5 960.523 1208.44 957.168 1193.9C954.906 1184.1 953.1 1174.14 954.45 1164.01C954.889 1160.72 955.864 1154.33 959.342 1152.59C965.976 1149.28 972.538 1169.84 974.018 1173.79C978.051 1184.55 979.731 1196.41 982.715 1207.49C986.25 1220.62 990.551 1233.51 994.129 1246.63C1000.19 1268.85 1004.87 1291.33 1010.98 1313.49C1014.36 1325.75 1016.83 1338.73 1021.85 1350.45C1025.34 1358.59 1027.99 1366.91 1030.55 1375.45C1030.87 1376.53 1033.38 1381.32 1032.18 1382.52C1031.49 1383.21 1031.25 1380.76 1031.09 1379.8C1030.43 1375.82 1030.55 1375.23 1030.55 1371.65C1030.55 1365.24 1030.37 1359.51 1029.46 1353.16C1027.24 1337.65 1021.32 1323 1018.59 1307.51C1017.73 1302.66 1016.82 1297.73 1016.42 1292.83C1016.22 1290.51 1016.25 1288.56 1015.87 1286.31C1015.78 1285.77 1015.87 1284.13 1015.87 1284.68C1015.87 1288.54 1018.1 1291.83 1019.13 1295.55C1021.21 1303.04 1023.05 1311.35 1024.57 1318.92C1027.28 1332.45 1028.27 1346.52 1029.46 1360.23C1030.25 1369.31 1030.52 1378.34 1031.09 1387.41C1031.19 1388.95 1032.75 1394.44 1031.09 1396.11C1030.83 1396.36 1031.15 1395.38 1031.09 1395.02C1030.97 1394.28 1030.73 1393.57 1030.55 1392.84"
            fill="none" opacity="1" stroke="#e99e52" stroke-linecap="round" stroke-linejoin="round"
            stroke-width="22.9853" />
        <path
            d="M979.199 1026.49C976.27 1030.71 979.262 1036.72 978.55 1041.7C976.784 1054.01 977.111 1066.86 977.783 1079.07C977.996 1082.93 976.331 1087.58 977.564 1091.28"
            fill="none" opacity="1" stroke="#98b47c" stroke-linecap="round" stroke-linejoin="round"
            stroke-width="22.9853" />
        <path
            d="M949.963 1022.3C948.432 1032.98 954.293 1043.49 956.161 1053.79C958.703 1067.8 958.047 1081.98 962.461 1095.24"
            fill="none" opacity="1" stroke="#98b47c" stroke-linecap="round" stroke-linejoin="round"
            stroke-width="22.9853" />
        <path
            d="M930.138 1048.53C929.459 1053.27 931.804 1057.96 932.702 1062.67C934.748 1073.38 936.122 1084.2 938.043 1094.8"
            fill="none" opacity="1" stroke="#98b47c" stroke-linecap="round" stroke-linejoin="round"
            stroke-width="22.9853" />
        <path d="M908.277 1078.29C917.416 1084.62 917.729 1097.2 926.151 1103.04" fill="none" opacity="1"
            stroke="#98b47c" stroke-linecap="round" stroke-linejoin="round" stroke-width="22.9853" />
        <path d="M894.664 1103.88C892.778 1106.6 910.266 1114.53 915.222 1115.24" fill="none" opacity="1"
            stroke="#98b47c" stroke-linecap="round" stroke-linejoin="round" stroke-width="22.9853" />
        <g opacity="1">
            <path
                d="M1031.78 1158.09C1029.75 1158.26 1027.51 1158.36 1025.62 1159.22C1025.2 1159.41 1024.85 1159.69 1024.44 1159.91C1023.74 1160.27 1022.98 1160.56 1022.31 1160.97C1021.6 1161.4 1020.99 1161.95 1020.31 1162.44C1019.06 1163.33 1017.78 1164.19 1016.53 1165.09C1013.55 1167.25 1010.6 1169.47 1007.59 1171.59C1011.81 1172.5 1016.11 1173.17 1020.19 1174.62C1020.83 1174.86 1021.47 1175.09 1022.09 1175.38C1022.72 1175.67 1023.31 1176.08 1023.94 1176.38C1024.52 1176.65 1025.15 1176.8 1025.72 1177.09C1026 1177.24 1026.2 1177.49 1026.47 1177.66C1026.71 1177.8 1026.98 1177.9 1027.25 1178C1028.27 1178.4 1029.38 1178.69 1030.44 1178.97C1036.2 1179.34 1041.16 1174.95 1041.53 1169.19C1041.9 1163.42 1037.55 1158.47 1031.78 1158.09Z"
                fill="#ffe59b" stroke="none" />
        </g>
        <g opacity="1">
            <path
                d="M960.094 1218.66C953.602 1219.46 947.121 1220.05 940.594 1220.5C932.722 1221.04 924.825 1221.49 917.031 1222.78C915.381 1223.06 913.747 1223.36 912.094 1223.62C910.428 1223.89 908.69 1224.11 907.062 1224.56C906.021 1224.85 905.026 1225.24 903.969 1225.47C902.358 1225.82 900.749 1226.09 899.156 1226.53C894.689 1227.76 890.277 1229.28 885.844 1230.62C880.415 1232.6 877.621 1238.57 879.594 1244C881.566 1249.43 887.571 1252.25 893 1250.28C897.536 1248.35 902.05 1246.34 906.344 1243.91C907.751 1243.11 909.017 1242.18 910.375 1241.31C911.731 1240.44 913.215 1239.89 914.562 1239C916.714 1237.59 918.858 1236.16 921.094 1234.88C922.87 1233.85 924.758 1232.97 926.594 1232.06C931.918 1229.43 937.59 1227.4 943.156 1225.34C948.86 1223.24 954.503 1221.05 960.094 1218.66Z"
                fill="#ffe59b" stroke="none" />
        </g>
        <g opacity="1">
            <path
                d="M1044.81 1245.88C1043.46 1245.77 1042.06 1245.92 1040.69 1246.38C1037.66 1247.67 1034.52 1248.86 1031.66 1250.5C1030.76 1251.01 1029.97 1251.71 1029.06 1252.19C1028.46 1252.5 1027.81 1252.72 1027.22 1253.06C1026.32 1253.58 1025.5 1254.23 1024.62 1254.78C1022.58 1256.09 1020.49 1257.3 1018.38 1258.5C1011.46 1262.42 1004.26 1265.85 997.156 1269.41C1004.77 1269.09 1012.41 1268.75 1020.03 1268.59C1022.51 1268.54 1024.96 1268.51 1027.44 1268.53C1028.87 1268.54 1030.32 1268.67 1031.75 1268.59C1032.43 1268.56 1033.1 1268.38 1033.78 1268.31C1035.2 1268.18 1036.64 1268.33 1038.06 1268.16C1041.18 1267.78 1044.24 1266.96 1047.28 1266.22C1052.76 1264.4 1055.73 1258.48 1053.91 1253C1052.54 1248.89 1048.88 1246.2 1044.81 1245.88Z"
                fill="#ffe59b" stroke="none" />
        </g>
        <g opacity="1">
            <path
                d="M970.188 1327.91C964.866 1328.19 959.592 1328.66 954.281 1329.09C952.799 1329.21 951.298 1329.37 949.812 1329.44C948.789 1329.48 947.772 1329.43 946.75 1329.5C945.771 1329.57 944.788 1329.83 943.812 1329.94C943.317 1329.99 942.838 1329.94 942.344 1330C940.09 1330.28 937.691 1331.31 935.562 1332.09C930.422 1334.73 928.398 1341.05 931.031 1346.19C933.665 1351.33 939.953 1353.35 945.094 1350.72C946.938 1349.47 948.949 1348.24 950.5 1346.62C950.845 1346.27 951.124 1345.86 951.469 1345.5C952.115 1344.83 952.859 1344.24 953.469 1343.53C955.053 1341.69 956.616 1339.87 958.344 1338.16C962.061 1334.47 966.093 1331.15 970.188 1327.91Z"
                fill="#ffe59b" stroke="none" />
        </g>
        <g opacity="1">
            <path
                d="M1062.41 1333.25C1061.05 1333.35 1059.69 1333.74 1058.41 1334.41C1055.53 1336.2 1052.51 1337.93 1049.88 1340.06C1049.06 1340.72 1048.4 1341.53 1047.56 1342.16C1047 1342.57 1046.38 1342.87 1045.84 1343.31C1045.04 1343.97 1044.32 1344.78 1043.53 1345.47C1041.69 1347.08 1039.78 1348.61 1037.84 1350.09C1031.46 1354.99 1024.61 1359.16 1017.56 1363.03C1025.4 1362.34 1033.12 1361.17 1040.88 1359.88C1043.39 1359.45 1045.92 1359 1048.44 1358.59C1049.89 1358.36 1051.38 1358.26 1052.81 1357.94C1053.49 1357.78 1054.14 1357.49 1054.81 1357.31C1056.22 1356.93 1057.69 1356.82 1059.09 1356.41C1062.14 1355.51 1065.07 1354.23 1068 1353C1073.13 1350.35 1075.15 1344.04 1072.5 1338.91C1070.51 1335.06 1066.47 1332.94 1062.41 1333.25Z"
                fill="#ffe59b" stroke="none" />
        </g>
        <g opacity="1">
            <path
                d="M1017.66 1401.25C1013.46 1401.53 1009.26 1401.95 1005.06 1402.16C1003.88 1402.22 1002.69 1402.28 1001.5 1402.28C1000.67 1402.28 999.857 1402.2 999.031 1402.22C998.259 1402.24 997.489 1402.45 996.719 1402.5C996.317 1402.53 995.933 1402.43 995.531 1402.47C993.752 1402.62 991.933 1403.47 990.281 1404.09C985.272 1406.97 983.531 1413.37 986.406 1418.38C989.282 1423.38 995.678 1425.09 1000.69 1422.22C1002.03 1421.14 1003.55 1420.07 1004.56 1418.66C1004.8 1418.33 1004.95 1417.92 1005.19 1417.59C1005.62 1416.99 1006.17 1416.48 1006.56 1415.84C1007.59 1414.17 1008.55 1412.49 1009.72 1410.91C1012.19 1407.55 1014.92 1404.39 1017.66 1401.25Z"
                fill="#ffe59b" stroke="none" />
        </g>
    </g>
    <g id="Layer-17" vectornator:layerName="Layer 17">
        <path
            d="M590.591 128.972C590.591 136.902 597.014 143.479 600.56 150.572C603.553 156.558 606.15 162.734 608.868 168.849C615.619 184.04 620.648 200.213 627.145 215.373C632.093 226.917 639.705 237.169 645.422 248.604"
            fill="none" opacity="1" stroke="#282420" stroke-linecap="round" stroke-linejoin="round"
            stroke-width="22.9853" />
        <path
            d="M632.13 187.126C636.173 174.996 639.578 162.655 643.761 150.572C645.661 145.082 651.38 126.824 657.053 123.987"
            fill="none" opacity="1" stroke="#282420" stroke-linecap="round" stroke-linejoin="round"
            stroke-width="22.9853" />
        <path d="M638.776 192.111C658.097 192.111 676.194 198.757 695.269 198.757" fill="none" opacity="1"
            stroke="#282420" stroke-linecap="round" stroke-linejoin="round" stroke-width="22.9853" />
        <path
            d="M736.808 119.002C736.808 130.217 744.501 140.071 748.439 150.572C750.534 156.157 750.867 162.97 755.085 167.188"
            fill="none" opacity="1" stroke="#282420" stroke-linecap="round" stroke-linejoin="round"
            stroke-width="22.9853" />
        <path
            d="M799.948 100.725C805.006 110.841 811.99 120.344 816.563 130.633C818.628 135.278 819.797 143.926 821.548 143.926C822.973 143.926 820.195 136.427 819.886 133.956C819.612 131.758 819.886 129.526 819.886 127.31C819.886 114.093 817.465 95.064 829.856 85.7711C846.691 73.1445 863.014 102.637 868.072 114.018C871.24 121.147 875.604 128.307 878.041 135.618"
            fill="none" opacity="1" stroke="#282420" stroke-linecap="round" stroke-linejoin="round"
            stroke-width="22.9853" />
        <path
            d="M587.268 408.114C592.832 424.808 603.39 440.897 612.191 456.299C617.147 464.973 623.991 471.761 627.145 481.223"
            fill="none" opacity="1" stroke="#282420" stroke-linecap="round" stroke-linejoin="round"
            stroke-width="22.9853" />
        <path
            d="M595.575 413.099C595.575 392.327 628.314 390.842 638.776 404.791C641.404 408.295 642.075 424.234 640.438 428.053C638.895 431.653 635.263 434.011 632.13 436.361C630.659 437.464 619.31 443.952 620.499 446.33C621.242 447.816 623.822 446.33 625.484 446.33C628.807 446.33 632.163 446.8 635.453 446.33C648.397 444.481 665.801 434.919 678.654 441.345"
            fill="none" opacity="1" stroke="#282420" stroke-linecap="round" stroke-linejoin="round"
            stroke-width="22.9853" />
        <path
            d="M745.116 361.59C737.706 361.59 726.881 360.901 720.193 364.914C715.451 367.758 714.143 375.096 713.546 379.868C712.196 390.672 711.001 399.443 725.177 401.468C736.326 403.061 749.635 399.276 751.762 386.514C752.875 379.836 749.666 376.031 748.439 369.898C748.222 368.812 747.331 366.575 748.439 366.575C748.449 366.575 761.467 378.326 763.393 379.868C771.117 386.047 778.967 386.514 788.317 386.514"
            fill="none" opacity="1" stroke="#282420" stroke-linecap="round" stroke-linejoin="round"
            stroke-width="22.9853" />
        <path
            d="M814.902 330.021C817.479 337.753 819.18 337.941 823.21 343.313C826.609 347.846 828.906 356.368 831.517 361.59C832.414 363.384 835.165 369.23 836.502 369.898C837.493 370.394 836.502 367.683 836.502 366.575"
            fill="none" opacity="1" stroke="#282420" stroke-linecap="round" stroke-linejoin="round"
            stroke-width="22.9853" />
        <path d="M811.579 275.189C807.253 275.189 805.205 269.089 803.271 265.22" fill="none" opacity="1"
            stroke="#282420" stroke-linecap="round" stroke-linejoin="round" stroke-width="22.9853" />
        <path
            d="M1389.8 459.623C1386.3 452.617 1386.91 444.181 1386.48 436.361C1386.2 431.384 1386.48 426.391 1386.48 421.407C1386.48 417.53 1385.72 413.577 1386.48 409.776C1392.53 379.498 1413.82 423.068 1424.7 423.068C1434.89 423.068 1451.5 407.894 1457.93 401.468C1459.86 399.529 1465.68 396.483 1467.9 399.806C1470.17 403.213 1469.56 414.352 1469.56 418.084C1469.56 433.591 1469.56 449.099 1469.56 464.607"
            fill="none" opacity="1" stroke="#282420" stroke-linecap="round" stroke-linejoin="round"
            stroke-width="22.9853" />
        <path
            d="M1561.15 444.6C1534.23 431.141 1510.9 461.155 1535.92 479.922C1544.29 486.202 1560.53 478.596 1566.19 471.512C1569.17 467.79 1571.15 464.17 1572.92 459.738C1573.85 457.41 1574.51 451.237 1576.29 453.01C1577.47 454.199 1575.96 456.406 1576.29 458.056C1576.78 460.537 1580.16 467.873 1581.33 469.83C1585.89 477.434 1592.07 481.085 1599.83 484.968"
            fill="none" opacity="1" stroke="#282420" stroke-linecap="round" stroke-linejoin="round"
            stroke-width="22.9853" />
        <path
            d="M1680.57 481.604C1677.44 472.228 1664.6 468.977 1657.02 476.558C1648.5 485.081 1641.94 508.167 1650.29 518.608C1655.07 524.584 1668.32 522.748 1673.84 518.608C1677.96 515.518 1682.86 504.706 1685.62 500.106C1686.81 498.124 1684.99 493.378 1687.3 493.378C1690.71 493.378 1688.42 500.106 1688.98 503.47C1689.5 506.612 1692.85 512.311 1694.03 515.244C1697.68 524.376 1707.64 529.619 1715.89 533.746"
            fill="none" opacity="1" stroke="#282420" stroke-linecap="round" stroke-linejoin="round"
            stroke-width="22.9853" />
        <path
            d="M1798.31 429.462C1814.82 421.205 1853.22 451.986 1845.41 471.512C1844.94 472.676 1842.93 472.307 1842.04 473.194C1837.82 477.42 1833.57 481.228 1828.59 484.968C1823.18 489.02 1817.48 496.413 1813.45 501.788C1808.1 508.924 1807.25 524.285 1803.36 532.064"
            fill="none" opacity="1" stroke="#282420" stroke-linecap="round" stroke-linejoin="round"
            stroke-width="22.9853" />
        <path
            d="M1794.95 594.298L1789.9 594.298L1784.85 594.298L1784.85 597.663L1784.85 602.709L1788.22 604.391L1791.58 606.073L1794.95 602.709L1794.95 597.663L1794.95 597.663"
            fill="none" opacity="1" stroke="#282420" stroke-linecap="round" stroke-linejoin="round"
            stroke-width="22.9853" />
    </g>
</svg>